<svg width="32" height="20" viewBox="0 0 32 20" fill="none" xmlns="http://www.w3.org/2000/svg">
<path d="M1 2H31C31.2652 2 31.5196 1.89464 31.7071 1.70711C31.8946 1.51957 32 1.26522 32 1C32 0.734784 31.8946 0.48043 31.7071 0.292893C31.5196 0.105357 31.2652 0 31 0H1C0.734784 0 0.48043 0.105357 0.292893 0.292893C0.105357 0.48043 0 0.734784 0 1C0 1.26522 0.105357 1.51957 0.292893 1.70711C0.48043 1.89464 0.734784 2 1 2Z" fill="white"/>
<path d="M31 9H1C0.734784 9 0.48043 9.10536 0.292893 9.29289C0.105357 9.48043 0 9.73478 0 10C0 10.2652 0.105357 10.5196 0.292893 10.7071C0.48043 10.8946 0.734784 11 1 11H31C31.2652 11 31.5196 10.8946 31.7071 10.7071C31.8946 10.5196 32 10.2652 32 10C32 9.73478 31.8946 9.48043 31.7071 9.29289C31.5196 9.10536 31.2652 9 31 9Z" fill="white"/>
<path d="M31 18H1C0.734784 18 0.48043 18.1054 0.292893 18.2929C0.105357 18.4804 0 18.7348 0 19C0 19.2652 0.105357 19.5196 0.292893 19.7071C0.48043 19.8946 0.734784 20 1 20H31C31.2652 20 31.5196 19.8946 31.7071 19.7071C31.8946 19.5196 32 19.2652 32 19C32 18.7348 31.8946 18.4804 31.7071 18.2929C31.5196 18.1054 31.2652 18 31 18Z" fill="white"/>
</svg>
